<svg width="32" height="32" viewBox="0 0 32 32" fill="none" xmlns="http://www.w3.org/2000/svg">
<rect x="0.848485" y="0.848485" width="30.303" height="30.303" rx="3.15152" fill="#11476C" stroke="#28A6EE" stroke-width="1.69697"/>
<path d="M24.6061 3.15152L28.9099 10.6061H20.3022L24.6061 3.15152Z" fill="#2BABF0"/>
<rect x="22.7879" y="10.4242" width="3.39394" height="10.1818" fill="#2BABF0"/>
<path fill-rule="evenodd" clip-rule="evenodd" d="M4.12122 12.6061C4.12122 9.52666 7.48586 7.0303 11.6364 7.0303C15.7869 7.0303 19.1515 9.52666 19.1515 12.6061C19.1515 12.8837 19.1242 13.1566 19.0714 13.4233C18.7834 14.8779 17.7384 16.15 16.2427 17.012C16.248 17.4757 16.34 17.9186 16.5035 18.3252C16.9916 18.784 17.4029 19.3131 17.7181 19.8948C18.1699 20.7285 18.4242 21.6701 18.4242 22.6667C18.4242 26.0808 15.4395 28.8485 11.7576 28.8485C8.07568 28.8485 5.09091 26.0808 5.09091 22.6667C5.09091 21.6701 5.34525 20.7285 5.79702 19.8948C6.11223 19.3131 6.52357 18.784 7.01169 18.3252C7.15954 17.9574 7.24901 17.5598 7.26863 17.144C5.62902 16.2737 4.48075 14.9265 4.1922 13.3755C4.1454 13.124 4.12122 12.8671 4.12122 12.6061ZM11.7576 15.5152C13.9667 15.5152 15.7576 14.2127 15.7576 12.6061C15.7576 10.9994 13.9667 9.69697 11.7576 9.69697C9.54844 9.69697 7.75758 10.9994 7.75758 12.6061C7.75758 14.2127 9.54844 15.5152 11.7576 15.5152Z" fill="#28A6EE"/>
</svg>
