<svg width="32" height="32" viewBox="0 0 32 32" fill="none" xmlns="http://www.w3.org/2000/svg">
<rect x="0.848485" y="0.848485" width="30.303" height="30.303" rx="3.15152" fill="#6E383B" stroke="#C84848" stroke-width="1.69697"/>
<path fill-rule="evenodd" clip-rule="evenodd" d="M16 28.8485C23.096 28.8485 28.8485 23.096 28.8485 16C28.8485 11.162 26.1745 6.94858 22.2239 4.75693C20.38 3.73401 18.258 3.15152 16 3.15152C13.756 3.15152 11.6464 3.72678 9.81054 4.73786C5.841 6.92408 3.15149 11.148 3.15149 16C3.15149 23.096 8.90395 28.8485 16 28.8485ZM5.83589 15.3939C6.04772 11.7855 8.13879 8.68206 11.1445 7.0483L14.0914 12.1525C12.9075 12.7988 12.0656 13.9928 11.9062 15.3939H5.83589ZM26.1641 15.3939C25.953 11.7993 23.8772 8.7059 20.8901 7.06718L17.9995 12.0738C19.2627 12.6985 20.1701 13.9338 20.3362 15.3939H26.1641ZM15.1832 14.0436C15.4645 13.8995 15.7834 13.8182 16.1212 13.8182C16.3982 13.8182 16.6624 13.8728 16.9036 13.9719C17.5082 14.2203 17.9686 14.7477 18.1244 15.3939C18.1619 15.5494 18.1818 15.7118 18.1818 15.8788C18.1818 16.6038 17.8074 17.2413 17.2414 17.6086C16.919 17.8178 16.5343 17.9394 16.1212 17.9394C15.6466 17.9394 15.2096 17.779 14.8612 17.5094C14.3742 17.1326 14.0606 16.5423 14.0606 15.8788C14.0606 15.7118 14.0804 15.5494 14.1179 15.3939C14.2601 14.8044 14.6558 14.3137 15.1832 14.0436ZM16 26.1818C17.9517 26.1818 19.7752 25.6327 21.3244 24.6804L18.3332 19.4996C17.6891 19.8939 16.9317 20.1212 16.1212 20.1212C15.2495 20.1212 14.4393 19.8583 13.7654 19.4075L10.7092 24.701C12.2511 25.6406 14.0623 26.1818 16 26.1818Z" fill="#C84848"/>
</svg>
