<svg width="1098" height="232" viewBox="0 0 1098 232" fill="none" xmlns="http://www.w3.org/2000/svg">
<path d="M296.36 169.8H270.063L304.22 68.5637H336.796L370.953 169.8H344.655L320.878 94.0705H320.088L296.36 169.8ZM292.851 129.958H347.819V148.544H292.851V129.958ZM381.853 169.8V68.5637H423.672C431.251 68.5637 437.793 69.9313 443.296 72.6665C448.833 75.3688 453.1 79.2574 456.099 84.3324C459.098 89.3745 460.597 95.3557 460.597 102.276C460.597 109.296 459.065 115.26 456 120.171C452.936 125.048 448.586 128.772 442.95 131.342C437.315 133.88 430.642 135.148 422.93 135.148H396.484V115.87H418.383C422.074 115.87 425.155 115.392 427.626 114.436C430.131 113.448 432.026 111.965 433.311 109.988C434.596 107.977 435.239 105.407 435.239 102.276C435.239 99.1455 434.596 96.5586 433.311 94.5154C432.026 92.4393 430.131 90.8904 427.626 89.8688C425.122 88.8143 422.041 88.287 418.383 88.287H406.321V169.8H381.853ZM438.847 123.532L464.058 169.8H437.365L412.649 123.532H438.847ZM470.706 88.4353V68.5637H556.273V88.4353H525.576V169.8H501.453V88.4353H470.706ZM592.692 68.5637V169.8H568.223V68.5637H592.692ZM608.053 169.8V68.5637H677.158V88.4353H632.521V109.197H672.759V129.118H632.521V169.8H608.053ZM713.948 68.5637V169.8H689.479V68.5637H713.948ZM821.203 105.242H796.487C796.157 102.705 795.482 100.414 794.46 98.3711C793.438 96.3279 792.087 94.5813 790.407 93.1313C788.726 91.6813 786.732 90.5773 784.425 89.8194C782.151 89.0285 779.63 88.633 776.862 88.633C771.952 88.633 767.717 89.8358 764.158 92.2415C760.632 94.6472 757.913 98.1239 756.002 102.672C754.124 107.219 753.184 112.723 753.184 119.182C753.184 125.905 754.14 131.54 756.051 136.088C757.996 140.602 760.715 144.013 764.208 146.32C767.734 148.594 771.903 149.731 776.714 149.731C779.416 149.731 781.871 149.385 784.079 148.693C786.32 148.001 788.281 146.996 789.962 145.677C791.675 144.326 793.076 142.695 794.163 140.784C795.284 138.839 796.058 136.648 796.487 134.209L821.203 134.357C820.774 138.839 819.472 143.255 817.297 147.605C815.155 151.955 812.206 155.926 808.449 159.518C804.692 163.077 800.112 165.911 794.707 168.021C789.336 170.13 783.173 171.184 776.22 171.184C767.058 171.184 758.853 169.174 751.603 165.153C744.386 161.1 738.684 155.201 734.499 147.457C730.314 139.713 728.221 130.288 728.221 119.182C728.221 108.043 730.347 98.6018 734.598 90.8574C738.849 83.1131 744.6 77.2307 751.85 73.2103C759.1 69.1898 767.223 67.1796 776.22 67.1796C782.349 67.1796 788.017 68.0364 793.224 69.7501C798.431 71.4307 803.012 73.9023 806.966 77.1648C810.921 80.3944 814.134 84.3654 816.605 89.0779C819.077 93.7904 820.609 99.1785 821.203 105.242ZM859.673 68.5637V169.8H835.204V68.5637H859.673ZM936.28 68.5637H960.699V133.863C960.699 141.41 958.903 147.984 955.311 153.586C951.719 159.156 946.71 163.473 940.284 166.538C933.858 169.569 926.393 171.085 917.891 171.085C909.29 171.085 901.776 169.569 895.35 166.538C888.924 163.473 883.932 159.156 880.372 153.586C876.813 147.984 875.034 141.41 875.034 133.863V68.5637H899.503V131.738C899.503 135.231 900.261 138.345 901.776 141.08C903.325 143.815 905.484 145.957 908.252 147.506C911.02 149.055 914.233 149.83 917.891 149.83C921.549 149.83 924.746 149.055 927.481 147.506C930.249 145.957 932.408 143.815 933.957 141.08C935.505 138.345 936.28 135.231 936.28 131.738V68.5637ZM976.035 68.5637H1006.34L1032.04 131.243H1033.23L1058.93 68.5637H1089.23V169.8H1065.41V107.615H1064.57L1040.25 169.157H1025.02L1000.7 107.269H999.862V169.8H976.035V68.5637Z" fill="white"/>
<path d="M7.37525 156.272C2.6077 143.495 0 129.653 0 115.198C0 57.5953 41.4118 9.73151 95.8933 0.144871V40.9566C82.8654 44.5254 71.2221 51.4782 61.9523 60.8192L84.414 73.8771C93.0747 67.1703 103.92 63.1826 115.691 63.1826C127.404 63.1826 138.201 67.1314 146.84 73.7791L169.712 60.483C160.297 51.1118 148.476 44.1866 135.265 40.7312V0C190.161 9.23945 232 57.2991 232 115.198C232 129.818 229.333 143.81 224.461 156.708L189.476 136.37C191.384 129.644 192.405 122.541 192.405 115.198C192.405 108.088 191.447 101.203 189.654 94.6665L166.598 108.07C166.889 110.301 167.04 112.576 167.04 114.887C167.04 117.635 166.827 120.333 166.417 122.965C164.257 136.83 156.624 148.867 145.814 156.764C142.564 159.138 139.027 161.139 135.265 162.702V189.665C148.255 186.268 159.901 179.515 169.238 170.381L204.404 190.825C183.127 216.018 151.417 232 116 232C80.4159 232 48.574 215.867 27.2953 190.468L62.4227 170.047C71.6148 179.152 83.0848 185.931 95.8933 189.44V176.024V162.608C92.1642 161.038 88.6583 159.038 85.4367 156.668C74.6553 148.74 67.0584 136.683 64.94 122.807C64.5458 120.225 64.3413 117.58 64.3413 114.887C64.3413 112.631 64.4848 110.409 64.763 108.23L42.2214 95.1256C40.5084 101.525 39.5947 108.254 39.5947 115.198C39.5947 122.375 40.5706 129.322 42.3962 135.913L7.37525 156.272Z" fill="white"/>
</svg>
